<svg>
  <g xmlns:i="http://ns.adobe.com/AdobeIllustrator/10.0/" i:extraneous="self"><circle cx="15.039" cy="38.648" r="11.268"></circle><path d="M64.655,27.32l-17.393,2.238c-0.607,1.541-3.666,9.127-4.242,10.485c0,0,0,0,0.01,0    c3.576,1.769,15.601,4.635,24.083,7.043c-13.115,0.554-21.043,13.001-36.669,13.5c-4.441,0.142-8.369-0.723-11.483-1.81    c7.068-12.76,18.276-32.273,19.812-35.784c0.958-2.197,2.277-3.011,4.145-3.25l20.427-2.628c2.82-0.359,5.4,1.629,5.766,4.449    C69.464,24.382,67.474,26.962,64.655,27.32z"></path><path d="M11.458,56.482c0,0,6.862,12.118,19.799,11.704c17.258-0.55,23.641-13.09,36.579-13.502    c13.865-0.442,17.764,5.602,17.764,5.602s-5.635-12.158-18.268-11.755c-13.247,0.424-21.172,13.013-36.886,13.514    C19.355,62.398,11.458,56.482,11.458,56.482z"></path><path d="M13.93,64.938c0,0,6.566,11.595,18.946,11.2C49.39,75.611,55.501,63.611,67.88,63.216    c13.266-0.423,16.996,5.361,16.996,5.361s-5.391-11.635-17.479-11.249C54.72,57.733,47.137,69.78,32.1,70.26    C21.488,70.599,13.93,64.938,13.93,64.938z"></path></g>
</svg>